# Blender v2.75 (sub 0) OBJ File: ''
# www.blender.org
mtllib hideous_placeholder.mtl
o Cube
v 1.000000 -1.621560 -0.694518
v 1.000000 -0.559172 1.578184
v 1.000000 0.509955 -1.231927
v 0.999999 1.047365 0.694518
v 1.244710 -1.454608 0.013386
v 1.244710 -1.275471 0.655534
v 0.333333 -1.725338 -0.864473
v 1.244711 -0.840097 -1.109365
v 1.244711 -0.197948 -1.288501
v 0.333333 -0.725577 1.682306
v 1.244710 -0.171177 1.585541
v 1.244710 0.470971 1.109365
v 1.244710 0.924802 -0.655534
v 1.244710 1.103939 -0.013385
v 0.333334 0.679911 -1.533393
v 0.333333 1.348830 0.864474
v 0.414904 -0.175281 -1.744197
v 0.414904 -1.095380 -1.487522
v 0.414903 -0.193845 1.744197
v 0.414903 0.726254 1.487522
v 1.677556 -0.756099 -0.271307
v 1.677555 -0.533126 0.527982
v 1.677556 0.164000 -0.527982
v 1.677555 0.386974 0.271307
v 0.477615 1.319810 -0.850412
v 0.477615 1.542783 -0.051123
v 0.414903 -1.744197 -0.009282
v 0.414903 -1.653628 1.064619
v 0.333333 -0.802075 1.788852
v 0.414903 -0.184400 1.821155
v 0.874119 -1.691429 -1.433961
v 0.540785 -1.690760 -1.584807
v 0.996474 -1.180789 -1.447536
v 0.581570 -1.202501 -1.568592
v 0.166667 -1.681140 -1.986238
v 0.207452 -1.221362 -1.881017
v 0.486757 -0.457709 1.851668
v 0.343442 -0.181277 1.979541
v 0.402920 -0.364735 1.984307
v 0.265953 -0.787372 1.901339
v 0.388364 -0.519697 1.971622
v 1.378817 0.141739 1.379944
v 0.837244 -0.298476 1.707619
v 0.880702 0.737587 1.343868
v 0.309566 0.287012 1.651468
v 0.894432 0.224671 1.557734
v 0.580376 -0.095072 1.759429
v 0.580376 0.537847 1.759429
v 0.404027 -0.095072 1.151573
v 0.404027 0.537847 1.151573
v 1.188232 -0.095072 1.583080
v 1.188232 0.537847 1.583080
v 1.011883 -0.095072 0.975224
v 1.011883 0.537847 0.975224
v 0.527579 0.115901 1.855380
v 0.527579 0.326874 1.855380
v 0.447219 0.615288 1.578387
v 0.388436 0.615288 1.375769
v 0.308076 0.326874 1.098776
v 0.308076 0.115901 1.098776
v 0.388436 -0.172513 1.375769
v 0.447219 -0.172513 1.578387
v 0.585069 0.615288 1.018416
v 0.787687 0.615288 0.959633
v 1.064680 0.326874 0.879273
v 1.064680 0.115901 0.879273
v 0.787687 -0.172513 0.959633
v 0.585069 -0.172513 1.018416
v 1.145040 0.615288 1.156266
v 1.203823 0.615288 1.358884
v 1.284183 0.326874 1.635877
v 1.284183 0.115901 1.635877
v 1.203823 -0.172513 1.358884
v 1.145040 -0.172513 1.156266
v 1.007190 0.615288 1.716237
v 0.804572 0.615288 1.775020
v 0.804572 -0.172513 1.775020
v 1.007190 -0.172513 1.716237
v 0.964343 0.752266 1.475903
v 0.712142 0.752266 1.549071
v 0.880117 0.752266 1.185582
v 0.627915 0.752266 1.258750
v 0.712142 -0.309491 1.549071
v 0.964343 -0.309491 1.475903
v 0.627915 -0.309491 1.258750
v 0.880117 -0.309491 1.185582
v 1.089207 0.352688 1.835069
v 1.089207 0.090087 1.835069
v 0.798886 0.352688 1.919296
v 0.798886 0.090087 1.919296
v 1.263872 0.352688 1.074249
v 1.263872 0.090087 1.074249
v 1.348098 0.352688 1.364569
v 1.348098 0.090087 1.364569
v 0.503052 0.352688 0.899584
v 0.503052 0.090087 0.899584
v 0.793373 0.352688 0.815357
v 0.793373 0.090087 0.815357
v 0.328387 0.352688 1.660404
v 0.328387 0.090087 1.660404
v 0.244160 0.352688 1.370083
v 0.244160 0.090087 1.370083
v -1.000000 -1.621560 -0.694518
v -1.000000 -0.559172 1.578184
v -1.000000 0.509955 -1.231927
v -0.999999 1.047365 0.694518
v -1.244710 -1.454608 0.013386
v -1.244710 -1.275471 0.655534
v -0.333333 -1.725338 -0.864473
v -1.244711 -0.840097 -1.109365
v -1.244711 -0.197948 -1.288501
v -0.333333 -0.725577 1.682306
v -1.244710 -0.171177 1.585541
v -1.244710 0.470971 1.109365
v -1.244710 0.924802 -0.655534
v -1.244710 1.103939 -0.013385
v -0.333334 0.679911 -1.533393
v -0.333333 1.348830 0.864474
v -0.414904 -0.175281 -1.744197
v -0.414904 -1.095380 -1.487522
v -0.414903 -0.193845 1.744197
v -0.414903 0.726254 1.487522
v -1.677556 -0.756099 -0.271307
v -1.677555 -0.533126 0.527982
v -1.677556 0.164000 -0.527982
v -1.677555 0.386974 0.271307
v -0.477615 1.319810 -0.850412
v -0.477615 1.542783 -0.051123
v -0.414903 -1.744197 -0.009282
v -0.414903 -1.653628 1.064619
v -0.333333 -0.802075 1.788852
v -0.414903 -0.184400 1.821155
v -0.874119 -1.691429 -1.433961
v -0.540785 -1.690760 -1.584807
v -0.996474 -1.180789 -1.447536
v -0.581570 -1.202501 -1.568592
v -0.166667 -1.681140 -1.986238
v -0.207452 -1.221362 -1.881017
v 0.000000 -0.853503 1.899988
v 0.000000 -0.252866 1.946576
v -0.486757 -0.457709 1.851668
v 0.000000 -0.463886 2.052205
v -0.343442 -0.181277 1.979541
v 0.000000 -0.268469 2.083360
v -0.402920 -0.364735 1.984307
v 0.000000 -0.369847 2.150306
v -0.265953 -0.787372 1.901339
v 0.000000 -0.820075 2.018504
v -0.388364 -0.519697 1.971622
v 0.000000 -0.524624 2.131622
v -1.378817 0.141739 1.379944
v -0.837244 -0.298476 1.707619
v -0.880702 0.737587 1.343868
v -0.309566 0.287012 1.651468
v -0.894432 0.224671 1.557734
v -0.580376 -0.095072 1.759429
v -0.580376 0.537847 1.759429
v -0.404027 -0.095072 1.151573
v -0.404027 0.537847 1.151573
v -1.188232 -0.095072 1.583080
v -1.188232 0.537847 1.583080
v -1.011883 -0.095072 0.975224
v -1.011883 0.537847 0.975224
v -0.527579 0.115901 1.855380
v -0.527579 0.326874 1.855380
v -0.447219 0.615288 1.578387
v -0.388436 0.615288 1.375769
v -0.308076 0.326874 1.098776
v -0.308076 0.115901 1.098776
v -0.388436 -0.172513 1.375769
v -0.447219 -0.172513 1.578387
v -0.585069 0.615288 1.018416
v -0.787687 0.615288 0.959633
v -1.064680 0.326874 0.879273
v -1.064680 0.115901 0.879273
v -0.787687 -0.172513 0.959633
v -0.585069 -0.172513 1.018416
v -1.145040 0.615288 1.156266
v -1.203823 0.615288 1.358884
v -1.284183 0.326874 1.635877
v -1.284183 0.115901 1.635877
v -1.203823 -0.172513 1.358884
v -1.145040 -0.172513 1.156266
v -1.007190 0.615288 1.716237
v -0.804572 0.615288 1.775020
v -0.804572 -0.172513 1.775020
v -1.007190 -0.172513 1.716237
v -0.964343 0.752266 1.475903
v -0.712142 0.752266 1.549071
v -0.880117 0.752266 1.185582
v -0.627915 0.752266 1.258750
v -0.712142 -0.309491 1.549071
v -0.964343 -0.309491 1.475903
v -0.627915 -0.309491 1.258750
v -0.880117 -0.309491 1.185582
v -1.089207 0.352688 1.835069
v -1.089207 0.090087 1.835069
v -0.798886 0.352688 1.919296
v -0.798886 0.090087 1.919296
v -1.263872 0.352688 1.074249
v -1.263872 0.090087 1.074249
v -1.348098 0.352688 1.364569
v -1.348098 0.090087 1.364569
v -0.503052 0.352688 0.899584
v -0.503052 0.090087 0.899584
v -0.793373 0.352688 0.815357
v -0.793373 0.090087 0.815357
v -0.328387 0.352688 1.660404
v -0.328387 0.090087 1.660404
v -0.244160 0.352688 1.370083
v -0.244160 0.090087 1.370083
v 0.000000 -1.725338 -0.864473
v 0.000000 -1.033656 1.715905
v 0.000000 0.679911 -1.533393
v 0.000000 1.348830 0.864473
v 0.000000 -0.352468 -1.744197
v 0.000000 -1.095380 -1.487522
v 0.000000 0.726254 1.487522
v 0.000000 1.319810 -0.850412
v 0.000000 1.542783 -0.051123
v 0.000000 -1.744197 -0.009282
v 0.000000 -1.653628 1.064619
v 0.000000 -1.681140 -1.986238
v 0.000000 -1.221362 -1.881017
v 0.000000 -0.193845 1.744197
v 0.000000 0.266205 1.615860
vn 0.935800 0.328700 0.127100
vn 0.689500 0.723700 0.028100
vn 0.598400 0.725000 0.341000
vn 0.688500 0.561300 0.459200
vn 0.264700 0.080500 -0.961000
vn 0.794000 -0.223500 -0.565300
vn 0.653700 0.147000 -0.742300
vn -0.212500 0.261600 -0.941500
vn 0.577300 0.401000 -0.711200
vn 0.691000 0.018600 -0.722600
vn 0.239700 0.016800 -0.970700
vn 0.203000 0.483700 -0.851300
vn 0.085000 -0.993200 -0.079100
vn -0.294900 -0.616700 -0.729900
vn 0.452300 -0.567200 -0.688300
vn 0.536100 0.493500 -0.684800
vn 0.372700 0.399000 0.837800
vn 0.681600 -0.558500 0.472700
vn 0.228200 -0.026500 0.973200
vn 0.311900 0.355700 0.881000
vn 0.437400 0.586800 0.681400
vn 0.105000 0.524900 0.844600
vn 0.052900 0.281800 0.958000
vn 0.191100 0.871200 0.452200
vn 0.659700 -0.661800 0.356100
vn 0.944400 -0.222100 0.242600
vn 0.621800 -0.038700 0.782200
vn 0.511800 -0.422300 0.748100
vn 0.750300 0.270300 0.603300
vn 0.575400 -0.810800 -0.107700
vn 0.943800 -0.293600 -0.151900
vn 0.656800 -0.753900 0.012000
vn 0.935500 0.181100 -0.303200
vn 0.689500 0.604600 -0.398700
vn 0.255900 0.966600 -0.016900
vn 0.255900 0.835700 -0.485800
vn 0.166500 -0.984100 0.062300
vn 0.297200 -0.830700 0.470700
vn 0.645200 0.762400 0.048700
vn 0.980900 -0.122300 0.151000
vn 0.722800 -0.662300 0.197300
vn 0.546600 -0.688600 -0.476500
vn 0.000000 0.463300 -0.886200
vn 0.000000 0.676400 -0.736400
vn 0.637400 -0.130100 0.759400
vn 0.331400 0.791100 0.514100
vn 0.000000 0.716200 0.697900
vn 0.000000 -0.236200 0.971700
vn 0.000000 0.077500 0.997000
vn 0.000000 0.997800 0.066100
vn 0.470700 -0.683800 0.557500
vn 0.592000 0.140400 0.793600
vn 0.000000 0.222200 0.975000
vn 0.000000 -0.711900 0.702200
vn 0.000000 -0.954700 0.297400
vn -0.969800 -0.243400 0.014900
vn -0.854300 -0.221600 -0.470100
vn -0.715300 -0.577300 -0.393600
vn -0.722700 -0.691000 -0.011200
vn -0.014900 -0.243400 -0.969800
vn 0.470100 -0.221600 -0.854300
vn 0.393600 -0.577300 -0.715300
vn 0.014000 -0.683200 -0.730100
vn 0.969800 -0.243400 -0.014900
vn 0.854300 -0.221600 0.470100
vn 0.715300 -0.577300 0.393600
vn 0.722700 -0.691000 0.011200
vn 0.014900 -0.243400 0.969800
vn -0.470100 -0.221600 0.854300
vn -0.393600 -0.577300 0.715300
vn -0.014000 -0.683200 0.730100
vn 0.162400 -0.935500 -0.313500
vn 0.604500 -0.691000 -0.396300
vn -0.305000 0.935500 -0.177900
vn -0.402500 0.683200 -0.609200
vn -0.715300 0.577300 -0.393600
vn -0.722700 0.691000 -0.011200
vn -0.014000 0.683200 0.730100
vn -0.162400 0.935500 0.313500
vn -0.604500 0.691000 0.396300
vn -0.393600 0.577300 0.715300
vn 0.715300 0.577300 0.393600
vn 0.722700 0.691000 0.011200
vn 0.305000 0.935500 0.177900
vn 0.402500 0.683200 0.609200
vn 0.604500 0.691000 -0.396300
vn 0.162400 0.935500 -0.313500
vn 0.393600 0.577300 -0.715300
vn 0.014000 0.683200 -0.730100
vn 0.402500 -0.683200 0.609200
vn 0.305000 -0.935500 0.177900
vn -0.604500 -0.691000 0.396300
vn -0.162400 -0.935500 0.313500
vn -0.305000 -0.935500 -0.177900
vn -0.402500 -0.683200 -0.609200
vn 0.506400 -0.243400 0.827200
vn 0.506400 0.243400 0.827200
vn 0.854300 0.221600 0.470100
vn 0.014900 0.243400 0.969800
vn -0.470100 0.221600 0.854300
vn 0.827200 -0.243400 -0.506400
vn 0.827200 0.243400 -0.506400
vn 0.470100 0.221600 -0.854300
vn 0.969800 0.243400 -0.014900
vn -0.506400 -0.243400 -0.827200
vn -0.506400 0.243400 -0.827200
vn -0.854300 0.221600 -0.470100
vn -0.014900 0.243400 -0.969800
vn -0.827200 -0.243400 0.506400
vn -0.827200 0.243400 0.506400
vn -0.969800 0.243400 0.014900
vn 0.000000 -0.999500 -0.030700
vn 0.000000 -0.607700 -0.794100
vn 0.000000 -0.758000 0.652200
vn 0.000000 -0.886400 0.462900
vn 0.000000 -0.999500 0.031000
vn 0.000000 0.871500 -0.490300
vn 0.000000 0.999500 -0.031600
vn 0.000000 0.495100 -0.868800
vn 0.000000 0.879100 0.476700
vn 0.000000 0.525500 0.850800
vn 0.000000 -0.106100 -0.994400
vn 0.000000 0.268300 0.963300
vn 0.000000 0.724300 0.689500
vn -0.935800 0.328700 0.127100
vn -0.688500 0.561300 0.459200
vn -0.598400 0.725000 0.341000
vn -0.689500 0.723700 0.028100
vn -0.264700 0.080500 -0.961000
vn 0.212500 0.261600 -0.941500
vn -0.653700 0.147000 -0.742300
vn -0.794000 -0.223500 -0.565300
vn -0.577300 0.401000 -0.711200
vn -0.203000 0.483700 -0.851300
vn -0.239700 0.016800 -0.970700
vn -0.691000 0.018600 -0.722600
vn -0.085000 -0.993200 -0.079100
vn 0.294900 -0.616700 -0.729900
vn -0.536100 0.493500 -0.684800
vn -0.452300 -0.567200 -0.688300
vn -0.372700 0.399000 0.837800
vn -0.228200 -0.026500 0.973200
vn -0.681600 -0.558500 0.472700
vn -0.311900 0.355700 0.881000
vn -0.052900 0.281800 0.958000
vn -0.105000 0.524900 0.844600
vn -0.437400 0.586800 0.681400
vn -0.191100 0.871200 0.452200
vn -0.659700 -0.661800 0.356100
vn -0.511800 -0.422300 0.748100
vn -0.621800 -0.038700 0.782200
vn -0.944400 -0.222100 0.242600
vn -0.750300 0.270300 0.603300
vn -0.575400 -0.810800 -0.107700
vn -0.656800 -0.753900 0.012000
vn -0.943800 -0.293600 -0.151900
vn -0.935500 0.181100 -0.303200
vn -0.689500 0.604600 -0.398700
vn -0.255900 0.966600 -0.016900
vn -0.255900 0.835700 -0.485800
vn -0.166500 -0.984100 0.062300
vn -0.297200 -0.830700 0.470700
vn -0.722800 -0.662300 0.197300
vn -0.980900 -0.122300 0.151000
vn -0.645200 0.762400 0.048700
vn -0.546600 -0.688600 -0.476500
vn -0.637400 -0.130100 0.759400
vn -0.331400 0.791100 0.514100
vn -0.470700 -0.683800 0.557500
vn -0.592000 0.140400 0.793600
vn 0.969800 -0.243400 0.014900
vn 0.722700 -0.691000 -0.011200
vn 0.715300 -0.577300 -0.393600
vn 0.854300 -0.221600 -0.470100
vn 0.014900 -0.243400 -0.969800
vn -0.014000 -0.683200 -0.730100
vn -0.393600 -0.577300 -0.715300
vn -0.470100 -0.221600 -0.854300
vn -0.969800 -0.243400 -0.014900
vn -0.722700 -0.691000 0.011200
vn -0.715300 -0.577300 0.393600
vn -0.854300 -0.221600 0.470100
vn -0.014900 -0.243400 0.969800
vn 0.014000 -0.683200 0.730100
vn 0.393600 -0.577300 0.715300
vn 0.470100 -0.221600 0.854300
vn -0.162400 -0.935500 -0.313500
vn -0.604500 -0.691000 -0.396300
vn 0.305000 0.935500 -0.177900
vn 0.722700 0.691000 -0.011200
vn 0.715300 0.577300 -0.393600
vn 0.402500 0.683200 -0.609200
vn 0.014000 0.683200 0.730100
vn 0.393600 0.577300 0.715300
vn 0.604500 0.691000 0.396300
vn 0.162400 0.935500 0.313500
vn -0.715300 0.577300 0.393600
vn -0.402500 0.683200 0.609200
vn -0.305000 0.935500 0.177900
vn -0.722700 0.691000 0.011200
vn -0.162400 0.935500 -0.313500
vn -0.604500 0.691000 -0.396300
vn -0.014000 0.683200 -0.730100
vn -0.393600 0.577300 -0.715300
vn -0.402500 -0.683200 0.609200
vn -0.305000 -0.935500 0.177900
vn 0.162400 -0.935500 0.313500
vn 0.604500 -0.691000 0.396300
vn 0.305000 -0.935500 -0.177900
vn 0.402500 -0.683200 -0.609200
vn -0.506400 -0.243400 0.827200
vn -0.854300 0.221600 0.470100
vn -0.506400 0.243400 0.827200
vn -0.014900 0.243400 0.969800
vn 0.470100 0.221600 0.854300
vn -0.827200 -0.243400 -0.506400
vn -0.470100 0.221600 -0.854300
vn -0.827200 0.243400 -0.506400
vn -0.969800 0.243400 -0.014900
vn 0.506400 -0.243400 -0.827200
vn 0.854300 0.221600 -0.470100
vn 0.506400 0.243400 -0.827200
vn 0.014900 0.243400 -0.969800
vn 0.827200 -0.243400 0.506400
vn 0.827200 0.243400 0.506400
vn 0.969800 0.243400 0.014900
usemtl None
s 1
f 24//1 14//2 4//3 12//4
f 18//5 8//6 33//7 34//8
f 3//9 9//10 17//11 15//12
f 9//10 8//6 18//5 17//11
f 7//13 18//5 34//8 32//14
f 18//5 7//13 35//15 36//16
f 19//17 10//18 43//19
f 46//20 44//21 20//22 45//23
f 20//22 44//21 16//24
f 6//25 22//26 11//27 2//28
f 11//27 22//26 42//29
f 1//30 8//6 21//31 5//32
f 5//32 21//31 22//26 6//25
f 8//6 9//10 23//33 21//31
f 21//31 23//33 24//1 22//26
f 9//10 3//9 13//34 23//33
f 23//33 13//34 14//2 24//1
f 14//2 26//35 16//24 4//3
f 3//9 15//12 25//36 13//34
f 13//34 25//36 26//35 14//2
f 1//30 5//32 27//37 7//13
f 5//32 6//25 28//38 27//37
f 6//25 2//28 10//18 28//38
f 10//18 19//17 30//39 37//40 29//41
f 33//7 31//42 32//14 34//8
f 8//6 1//30 31//42 33//7
f 1//30 7//13 32//14 31//42
f 217//43 18//5 36//16 224//44
f 39//45 38//46 144//47 146//48
f 37//40 30//39 38//46 39//45
f 142//49 37//40 39//45 146//48
f 30//39 140//50 144//47 38//46
f 40//51 41//52 150//53 148//54
f 139//55 29//41 40//51 148//54
f 37//40 142//49 150//53 41//52
f 29//41 37//40 41//52 40//51
f 43//19 46//20 45//23 19//17
f 11//27 42//29 46//20 43//19
f 42//29 12//4 44//21 46//20
f 102//56 60//57 49//58 61//59
f 98//60 66//61 53//62 67//63
f 94//64 72//65 51//66 73//67
f 90//68 55//69 47//70 77//71
f 86//72 67//63 53//62 74//73
f 82//74 63//75 50//76 58//77
f 76//78 80//79 57//80 48//81
f 80//79 82//74 58//77 57//80
f 52//82 70//83 79//84 75//85
f 75//85 79//84 80//79 76//78
f 70//83 69//86 81//87 79//84
f 79//84 81//87 82//74 80//79
f 69//86 54//88 64//89 81//87
f 81//87 64//89 63//75 82//74
f 78//90 84//91 73//67 51//66
f 84//91 86//72 74//73 73//67
f 47//70 62//92 83//93 77//71
f 77//71 83//93 84//91 78//90
f 62//92 61//59 85//94 83//93
f 83//93 85//94 86//72 84//91
f 61//59 49//58 68//95 85//94
f 85//94 68//95 67//63 86//72
f 72//65 88//96 78//90 51//66
f 88//96 90//68 77//71 78//90
f 52//82 75//85 87//97 71//98
f 71//98 87//97 88//96 72//65
f 75//85 76//78 89//99 87//97
f 87//97 89//99 90//68 88//96
f 76//78 48//81 56//100 89//99
f 89//99 56//100 55//69 90//68
f 66//61 92//101 74//73 53//62
f 92//101 94//64 73//67 74//73
f 54//88 69//86 91//102 65//103
f 65//103 91//102 92//101 66//61
f 69//86 70//83 93//104 91//102
f 91//102 93//104 94//64 92//101
f 70//83 52//82 71//98 93//104
f 93//104 71//98 72//65 94//64
f 60//57 96//105 68//95 49//58
f 96//105 98//60 67//63 68//95
f 50//76 63//75 95//106 59//107
f 59//107 95//106 96//105 60//57
f 63//75 64//89 97//108 95//106
f 95//106 97//108 98//60 96//105
f 64//89 54//88 65//103 97//108
f 97//108 65//103 66//61 98//60
f 55//69 100//109 62//92 47//70
f 100//109 102//56 61//59 62//92
f 48//81 57//80 99//110 56//100
f 56//100 99//110 100//109 55//69
f 57//80 58//77 101//111 99//110
f 99//110 101//111 102//56 100//109
f 58//77 50//76 59//107 101//111
f 101//111 59//107 60//57 102//56
f 7//13 212//112 223//113 35//15
f 36//16 35//15 223//113 224//44
f 28//38 10//18 213//114 222//115
f 27//37 28//38 222//115 221//116
f 7//13 27//37 221//116 212//112
f 25//36 219//117 220//118 26//35
f 15//12 214//119 219//117 25//36
f 26//35 220//118 215//120 16//24
f 20//22 16//24 215//120 218//121
f 17//11 18//5 217//43 216//122
f 15//12 17//11 216//122 214//119
f 45//23 20//22 218//121 226//123
f 19//17 45//23 226//123 225//124
f 30//39 19//17 225//124 140//50
f 11//27 43//19 2//28
f 10//18 2//28 43//19
f 22//26 24//1 42//29
f 42//29 24//1 12//4
f 16//24 44//21 4//3
f 4//3 44//21 12//4
f 10//18 29//41 139//55 213//114
f 126//125 114//126 106//127 116//128
f 120//129 136//130 135//131 110//132
f 105//133 117//134 119//135 111//136
f 111//136 119//135 120//129 110//132
f 109//137 134//138 136//130 120//129
f 120//129 138//139 137//140 109//137
f 121//141 152//142 112//143
f 155//144 154//145 122//146 153//147
f 122//146 118//148 153//147
f 108//149 104//150 113//151 124//152
f 113//151 151//153 124//152
f 103//154 107//155 123//156 110//132
f 107//155 108//149 124//152 123//156
f 110//132 123//156 125//157 111//136
f 123//156 124//152 126//125 125//157
f 111//136 125//157 115//158 105//133
f 125//157 126//125 116//128 115//158
f 116//128 106//127 118//148 128//159
f 105//133 115//158 127//160 117//134
f 115//158 116//128 128//159 127//160
f 103//154 109//137 129//161 107//155
f 107//155 129//161 130//162 108//149
f 108//149 130//162 112//143 104//150
f 112//143 131//163 141//164 132//165 121//141
f 135//131 136//130 134//138 133//166
f 110//132 135//131 133//166 103//154
f 103//154 133//166 134//138 109//137
f 217//43 224//44 138//139 120//129
f 145//167 146//48 144//47 143//168
f 141//164 145//167 143//168 132//165
f 142//49 146//48 145//167 141//164
f 132//165 143//168 144//47 140//50
f 147//169 148//54 150//53 149//170
f 139//55 148//54 147//169 131//163
f 141//164 149//170 150//53 142//49
f 131//163 147//169 149//170 141//164
f 152//142 121//141 154//145 155//144
f 113//151 152//142 155//144 151//153
f 151//153 155//144 153//147 114//126
f 211//171 170//172 158//173 169//174
f 207//175 176//176 162//177 175//178
f 203//179 182//180 160//181 181//182
f 199//183 186//184 156//185 164//186
f 195//187 183//188 162//177 176//176
f 191//189 167//190 159//191 172//192
f 185//193 157//194 166//195 189//196
f 189//196 166//195 167//190 191//189
f 161//197 184//198 188//199 179//200
f 184//198 185//193 189//196 188//199
f 179//200 188//199 190//201 178//202
f 188//199 189//196 191//189 190//201
f 178//202 190//201 173//203 163//204
f 190//201 191//189 172//192 173//203
f 187//205 160//181 182//180 193//206
f 193//206 182//180 183//188 195//187
f 156//185 186//184 192//207 171//208
f 186//184 187//205 193//206 192//207
f 171//208 192//207 194//209 170//172
f 192//207 193//206 195//187 194//209
f 170//172 194//209 177//210 158//173
f 194//209 195//187 176//176 177//210
f 181//182 160//181 187//205 197//211
f 197//211 187//205 186//184 199//183
f 161//197 180//212 196//213 184//198
f 180//212 181//182 197//211 196//213
f 184//198 196//213 198//214 185//193
f 196//213 197//211 199//183 198//214
f 185//193 198//214 165//215 157//194
f 198//214 199//183 164//186 165//215
f 175//178 162//177 183//188 201//216
f 201//216 183//188 182//180 203//179
f 163//204 174//217 200//218 178//202
f 174//217 175//178 201//216 200//218
f 178//202 200//218 202//219 179//200
f 200//218 201//216 203//179 202//219
f 179//200 202//219 180//212 161//197
f 202//219 203//179 181//182 180//212
f 169//174 158//173 177//210 205//220
f 205//220 177//210 176//176 207//175
f 159//191 168//221 204//222 172//192
f 168//221 169//174 205//220 204//222
f 172//192 204//222 206//223 173//203
f 204//222 205//220 207//175 206//223
f 173//203 206//223 174//217 163//204
f 206//223 207//175 175//178 174//217
f 164//186 156//185 171//208 209//224
f 209//224 171//208 170//172 211//171
f 157//194 165//215 208//225 166//195
f 165//215 164//186 209//224 208//225
f 166//195 208//225 210//226 167//190
f 208//225 209//224 211//171 210//226
f 167//190 210//226 168//221 159//191
f 210//226 211//171 169//174 168//221
f 109//137 137//140 223//113 212//112
f 138//139 224//44 223//113 137//140
f 130//162 222//115 213//114 112//143
f 129//161 221//116 222//115 130//162
f 109//137 212//112 221//116 129//161
f 127//160 128//159 220//118 219//117
f 117//134 127//160 219//117 214//119
f 128//159 118//148 215//120 220//118
f 122//146 218//121 215//120 118//148
f 119//135 216//122 217//43 120//129
f 117//134 214//119 216//122 119//135
f 154//145 226//123 218//121 122//146
f 121//141 225//124 226//123 154//145
f 132//165 140//50 225//124 121//141
f 113//151 104//150 152//142
f 112//143 152//142 104//150
f 124//152 151//153 126//125
f 151//153 114//126 126//125
f 118//148 106//127 153//147
f 106//127 114//126 153//147
f 112//143 213//114 139//55 131//163
